<svg width="78" height="32" viewBox="0 0 78 32" fill="none" xmlns="http://www.w3.org/2000/svg">
<path d="M39.2344 9.68144V3.01367H41.4243C42.0628 3.01367 42.6337 3.14753 43.1354 3.41525C43.637 3.68297 44.0318 4.06644 44.3188 4.56565C44.6058 5.06487 44.7489 5.66409 44.7489 6.36252C44.7489 7.06095 44.6034 7.67591 44.3141 8.16883C44.0239 8.66175 43.6276 9.03655 43.1259 9.29482C42.6242 9.55309 42.0534 9.68144 41.4149 9.68144H39.2344ZM40.2118 8.97592L39.9185 8.76017H41.3653C41.8017 8.76017 42.198 8.67356 42.5535 8.50033C42.9089 8.3271 43.1943 8.06489 43.409 7.71213C43.6244 7.35937 43.7314 6.90898 43.7314 6.36094C43.7314 5.81291 43.6252 5.38692 43.4137 5.02471C43.2022 4.6625 42.9183 4.39006 42.5629 4.20738C42.2075 4.0247 41.8112 3.93336 41.3748 3.93336H39.8493L40.211 3.58061V8.97592H40.2118Z" fill="#FFFFFF"/>
<path d="M47.7268 9.77953C47.2637 9.77953 46.8563 9.67638 46.5049 9.47086C46.1526 9.26535 45.8789 8.97637 45.6839 8.60393C45.4881 8.23227 45.3906 7.79762 45.3906 7.30156C45.3906 6.80549 45.4881 6.36139 45.6839 5.98974C45.8797 5.61808 46.1534 5.32753 46.5049 5.11808C46.8571 4.90941 47.2644 4.80469 47.7268 4.80469C48.1892 4.80469 48.6067 4.90941 48.959 5.11808C49.3113 5.32753 49.5849 5.61729 49.7807 5.98974C49.9765 6.36218 50.074 6.79919 50.074 7.30156C50.074 7.34723 50.0724 7.39447 50.0693 7.44329C50.0661 7.49211 50.0614 7.5362 50.0543 7.57557H46.3193V6.73383H49.3506L49.0769 7.30156C49.0769 6.80549 48.9661 6.39761 48.7443 6.07792C48.5226 5.75824 48.1837 5.59839 47.7276 5.59839C47.3234 5.59839 47.001 5.72753 46.7596 5.98501C46.5182 6.24328 46.3979 6.58108 46.3979 6.9984V7.50786C46.3979 7.94566 46.5151 8.2929 46.7502 8.55038C46.9845 8.80865 47.3108 8.937 47.7276 8.937C48.1121 8.937 48.4086 8.85511 48.6169 8.69212C48.8253 8.52912 49.0077 8.32676 49.1642 8.08503L49.8979 8.54487C49.6761 8.9559 49.3907 9.26456 49.0423 9.47008C48.6932 9.67559 48.2552 9.77874 47.7276 9.77874L47.7268 9.77953Z" fill="#FFFFFF"/>
<path d="M53.1928 5.80375H50.5625V4.90296H53.1928V5.80375ZM51.2954 9.68174V4.43367C51.2954 4.08799 51.3504 3.80374 51.4621 3.58169C51.5729 3.35964 51.7294 3.19507 51.9315 3.0872C52.1336 2.97932 52.375 2.92578 52.6549 2.92578C52.7854 2.92578 52.9026 2.93523 53.0072 2.95491C53.111 2.9746 53.2061 2.99744 53.2911 3.02342V3.93445C53.2195 3.92106 53.1495 3.91004 53.0803 3.8998C53.0119 3.89035 52.9317 3.88484 52.8405 3.88484C52.6974 3.88484 52.5669 3.93209 52.4497 4.02658C52.3325 4.12107 52.2735 4.28248 52.2735 4.51083V9.68095H51.2961L51.2954 9.68174Z" fill="#FFFFFF"/>
<path d="M55.9924 9.77953C55.5293 9.77953 55.122 9.67638 54.7705 9.47086C54.4182 9.26535 54.1446 8.97637 53.9495 8.60393C53.7538 8.23227 53.6562 7.79762 53.6562 7.30156C53.6562 6.80549 53.7538 6.36139 53.9495 5.98974C54.1453 5.61808 54.419 5.32753 54.7705 5.11808C55.1228 4.90941 55.5301 4.80469 55.9924 4.80469C56.4548 4.80469 56.8723 4.90941 57.2246 5.11808C57.5769 5.32753 57.8505 5.61729 58.0463 5.98974C58.2421 6.36218 58.3396 6.79919 58.3396 7.30156C58.3396 7.34723 58.338 7.39447 58.3349 7.44329C58.3318 7.49211 58.327 7.5362 58.32 7.57557H54.5849V6.73383H57.6162L57.3426 7.30156C57.3426 6.80549 57.2317 6.39761 57.0099 6.07792C56.7882 5.75824 56.4493 5.59839 55.9932 5.59839C55.589 5.59839 55.2666 5.72753 55.0252 5.98501C54.7838 6.24328 54.6635 6.58108 54.6635 6.9984V7.50786C54.6635 7.94566 54.7807 8.2929 55.0158 8.55038C55.2501 8.80865 55.5765 8.937 55.9932 8.937C56.3777 8.937 56.6742 8.85511 56.8826 8.69212C57.0909 8.52912 57.2734 8.32676 57.4298 8.08503L58.1635 8.54487C57.9417 8.9559 57.6563 9.26456 57.308 9.47008C56.9588 9.67559 56.5208 9.77874 55.9932 9.77874L55.9924 9.77953Z" fill="#FFFFFF"/>
<path d="M60.6857 9.78032C60.3531 9.78032 60.026 9.70157 59.7028 9.54567C59.3804 9.38897 59.1146 9.12125 58.9062 8.74251L59.6493 8.25274C59.8318 8.49448 60.0048 8.66928 60.1675 8.77637C60.3303 8.88425 60.5418 8.93779 60.8029 8.93779C61.0113 8.93779 61.1724 8.88425 61.2865 8.77637C61.4005 8.6685 61.4579 8.53621 61.4579 8.37952C61.4579 8.27479 61.4304 8.18345 61.3745 8.1055C61.3187 8.02676 61.2228 7.95353 61.086 7.88503C60.9491 7.81652 60.7533 7.74959 60.4994 7.68424C60.0299 7.56061 59.6682 7.39683 59.4142 7.19447C59.1602 6.99211 59.0329 6.67242 59.0329 6.23462C59.0329 5.97399 59.0981 5.7354 59.2286 5.51965C59.3592 5.3039 59.5479 5.13146 59.7956 5.00075C60.0433 4.87004 60.3366 4.80469 60.6755 4.80469C61.0797 4.80469 61.4249 4.88815 61.7119 5.0543C61.9989 5.22044 62.2238 5.41808 62.3865 5.64643L61.634 6.2047C61.5428 6.08737 61.4091 5.97162 61.233 5.85745C61.0569 5.74328 60.8351 5.6858 60.5678 5.6858C60.405 5.6858 60.2548 5.73147 60.118 5.8228C59.9812 5.91414 59.9128 6.0417 59.9128 6.2047C59.9128 6.36769 59.9764 6.49998 60.103 6.60155C60.2304 6.70313 60.4632 6.7921 60.8021 6.87085C61.3753 7.00785 61.7834 7.18581 62.024 7.40471C62.2654 7.62361 62.3858 7.91259 62.3858 8.27086C62.3858 8.58424 62.3063 8.85354 62.1459 9.07873C61.9855 9.30393 61.7779 9.47716 61.52 9.59764C61.2621 9.71811 60.9837 9.77874 60.6841 9.77874L60.6857 9.78032Z" fill="#FFFFFF"/>
<path d="M64.6779 9.81849C64.306 9.81849 63.9867 9.75313 63.7194 9.62242C63.452 9.49171 63.2484 9.30431 63.1084 9.05943C62.9684 8.81454 62.8984 8.52242 62.8984 8.18304C62.8984 7.86966 62.97 7.59091 63.1139 7.34603C63.257 7.10115 63.4622 6.90744 63.7296 6.76335C63.9969 6.62004 64.313 6.5476 64.6779 6.5476C65.134 6.5476 65.5004 6.65075 65.778 6.85626C66.0548 7.06177 66.249 7.34446 66.3599 7.70351H65.8126V6.47988C65.8126 6.27752 65.7442 6.09169 65.6073 5.92161C65.4705 5.75232 65.2291 5.66728 64.8839 5.66728C64.7015 5.66728 64.501 5.68854 64.2824 5.73106C64.0638 5.77358 63.8373 5.84681 63.603 5.95153L63.3097 5.19798C63.577 5.06727 63.8538 4.96963 64.1408 4.90428C64.4278 4.83892 64.7078 4.80664 64.9814 4.80664C65.3919 4.80664 65.7308 4.88144 65.9981 5.03184C66.2655 5.18223 66.4644 5.38302 66.595 5.63421C66.7255 5.88539 66.7908 6.16807 66.7908 6.48146V9.68305H66.087L65.8425 8.81139L66.3606 8.66494C66.2435 9.04998 66.0351 9.33896 65.7347 9.53187C65.4351 9.724 65.0829 9.82085 64.6787 9.82085L64.6779 9.81849ZM64.854 8.94683C65.141 8.94683 65.3722 8.8799 65.5484 8.74604C65.7245 8.61218 65.8126 8.42478 65.8126 8.18304C65.8126 7.94131 65.7245 7.74603 65.5484 7.61532C65.3722 7.48461 65.141 7.41926 64.854 7.41926C64.567 7.41926 64.3358 7.48461 64.1597 7.61532C63.9836 7.74603 63.8955 7.93501 63.8955 8.18304C63.8955 8.43108 63.9836 8.61218 64.1597 8.74604C64.3358 8.8799 64.567 8.94683 64.854 8.94683Z" fill="#FFFFFF"/>
<path d="M42.0741 20.3009C41.4025 20.3009 40.8144 20.152 40.3095 19.8552C39.8039 19.5583 39.4116 19.1505 39.1316 18.6316C38.8509 18.1127 38.7109 17.5268 38.7109 16.8741C38.7109 16.378 38.7959 15.9213 38.9649 15.5032C39.134 15.0859 39.3707 14.7229 39.6734 14.4166C39.9769 14.1095 40.3316 13.8717 40.7389 13.7016C41.1462 13.5323 41.5913 13.4473 42.0733 13.4473C42.8297 13.4473 43.4486 13.6024 43.9314 13.9126C44.4134 14.2229 44.8081 14.6386 45.1148 15.1607L44.1563 15.4449C43.8567 15.0339 43.5351 14.7544 43.193 14.6079C42.851 14.4614 42.4775 14.3874 42.0733 14.3874C41.6235 14.3874 41.2209 14.4953 40.8655 14.7103C40.5101 14.926 40.2286 15.2197 40.0194 15.5914C39.811 15.963 39.7064 16.3914 39.7064 16.8741C39.7064 17.3567 39.811 17.7764 40.0194 18.152C40.2278 18.5276 40.5101 18.8229 40.8655 19.0379C41.2209 19.2536 41.6235 19.3607 42.0733 19.3607C42.4775 19.3607 42.851 19.2875 43.193 19.1402C43.5351 18.9938 43.8559 18.7142 44.1563 18.3032L45.1148 18.5875C44.8081 19.1095 44.4142 19.5261 43.9314 19.8355C43.4486 20.1457 42.8297 20.3009 42.0733 20.3009H42.0741Z" fill="#FFFFFF"/>
<path d="M46.8627 20.2525C46.6928 20.2525 46.5434 20.2116 46.4129 20.1297C46.2823 20.0486 46.1801 19.9289 46.1046 19.7722C46.0299 19.6155 45.9922 19.4234 45.9922 19.1943V13.5352H46.9507V18.8517C46.9507 19.0541 47.001 19.1911 47.1025 19.2628C47.2039 19.3344 47.3195 19.3706 47.45 19.3706V20.1541C47.3651 20.1872 47.2739 20.2116 47.1764 20.2273C47.0789 20.2439 46.9743 20.2517 46.8634 20.2517L46.8627 20.2525Z" fill="#FFFFFF"/>
<path d="M48.2734 13.957C48.2734 13.768 48.3308 13.6129 48.4449 13.4917C48.5589 13.3712 48.7138 13.3105 48.9096 13.3105C49.1054 13.3105 49.2516 13.3712 49.3688 13.4917C49.486 13.6121 49.5449 13.7672 49.5449 13.957C49.5449 14.1468 49.486 14.2917 49.3688 14.4121C49.2516 14.5334 49.0983 14.5932 48.9096 14.5932C48.7209 14.5932 48.5589 14.5334 48.4449 14.4121C48.3308 14.2917 48.2734 14.1397 48.2734 13.957ZM49.3979 20.2035H48.4205V15.4255H49.3979V20.2035Z" fill="#FFFFFF"/>
<path d="M50.6719 20.2034V15.4254H51.415L51.6202 16.2671L51.3756 16.2963C51.5518 16.0876 51.7373 15.9112 51.9331 15.7679C52.1289 15.6246 52.3373 15.5151 52.5591 15.4396C52.7808 15.3648 53.012 15.327 53.2534 15.327C53.5923 15.327 53.8596 15.3844 54.0554 15.4986C54.2512 15.6128 54.3944 15.7663 54.4856 15.9585C54.5768 16.1514 54.6358 16.3679 54.6617 16.6096C54.6877 16.8514 54.701 17.0994 54.701 17.3537V20.2034H53.7236V17.1482C53.7236 16.8089 53.6466 16.5805 53.494 16.4624C53.3407 16.3451 53.1598 16.286 52.9514 16.286C52.6518 16.286 52.3648 16.3789 52.0912 16.5648C51.8176 16.7506 51.6186 16.9742 51.4944 17.2356V16.6876H51.6508V20.2026H50.6734L50.6719 20.2034ZM56.773 20.2034V17.1482C56.773 16.8089 56.6967 16.5805 56.5434 16.4624C56.3901 16.3451 56.2092 16.286 56.0008 16.286C55.7012 16.286 55.4142 16.3789 55.1406 16.5648C54.8669 16.7506 54.668 16.9742 54.5445 17.2356L54.4274 16.2955C54.6035 16.0868 54.7891 15.9104 54.9849 15.7671C55.1807 15.6238 55.3891 15.5144 55.6108 15.4388C55.8325 15.364 56.0637 15.3262 56.3051 15.3262C56.644 15.3262 56.9114 15.3837 57.1072 15.4978C57.303 15.612 57.4461 15.7655 57.5373 15.9577C57.6285 16.1506 57.6875 16.3671 57.7134 16.6089C57.7394 16.8506 57.7528 17.0986 57.7528 17.353V20.2026H56.7754L56.773 20.2034Z" fill="#FFFFFF"/>
<path d="M60.3888 20.3401C60.0169 20.3401 59.6977 20.2747 59.4303 20.144C59.163 20.0133 58.9593 19.8259 58.8193 19.581C58.6794 19.3361 58.6094 19.044 58.6094 18.7046C58.6094 18.3912 58.6809 18.1125 58.8248 17.8676C58.9679 17.6227 59.1732 17.429 59.4405 17.2849C59.7079 17.1416 60.024 17.0692 60.3888 17.0692C60.8449 17.0692 61.2113 17.1723 61.4889 17.3778C61.7657 17.5833 61.9599 17.866 62.0708 18.2251H61.5235V17.0015C61.5235 16.7991 61.4551 16.6133 61.3183 16.4432C61.1815 16.2739 60.9401 16.1889 60.5949 16.1889C60.4124 16.1889 60.2119 16.2101 59.9933 16.2526C59.7747 16.2952 59.5483 16.3684 59.3139 16.4731L59.0206 15.7196C59.288 15.5888 59.5648 15.4912 59.8518 15.4259C60.1388 15.3605 60.4187 15.3282 60.6924 15.3282C61.1028 15.3282 61.4417 15.403 61.7091 15.5534C61.9764 15.7038 62.1754 15.9046 62.3059 16.1558C62.4364 16.407 62.5017 16.6896 62.5017 17.003V20.2046H61.7979L61.5534 19.333L62.0716 19.1865C61.9544 19.5716 61.746 19.8605 61.4457 20.0534C61.1461 20.2456 60.7938 20.3424 60.3896 20.3424L60.3888 20.3401ZM60.565 19.4684C60.852 19.4684 61.0832 19.4015 61.2593 19.2676C61.4354 19.1338 61.5235 18.9464 61.5235 18.7046C61.5235 18.4629 61.4354 18.2676 61.2593 18.1369C61.0832 18.0062 60.852 17.9408 60.565 17.9408C60.278 17.9408 60.0468 18.0062 59.8706 18.1369C59.6945 18.2676 59.6064 18.4566 59.6064 18.7046C59.6064 18.9527 59.6945 19.1338 59.8706 19.2676C60.0468 19.4015 60.278 19.4684 60.565 19.4684ZM60.5548 14.7495L60.0657 14.24L61.5518 12.8691L62.0503 13.3684L60.554 14.7487L60.5548 14.7495Z" fill="#FFFFFF"/>
<path d="M63.2344 16.3256V15.4248H65.9621V16.3256H63.2344ZM65.3268 20.291C64.9093 20.291 64.579 20.1682 64.3344 19.9241C64.0899 19.6792 63.968 19.2989 63.968 18.7831V15.4248L64.1536 14.3477H64.9454V18.8028C64.9454 18.9855 64.9926 19.1225 65.087 19.2138C65.1813 19.3052 65.3001 19.3508 65.444 19.3508C65.5548 19.3508 65.6523 19.3445 65.7373 19.3312C65.8222 19.3178 65.8969 19.302 65.9621 19.2823V20.1926C65.8772 20.2186 65.7844 20.2414 65.6838 20.2611C65.5824 20.2808 65.4636 20.2902 65.3268 20.2902V20.291Z" fill="#FFFFFF"/>
<path d="M66.9531 13.957C66.9531 13.768 67.0105 13.6129 67.1245 13.4917C67.2386 13.3712 67.3935 13.3105 67.5893 13.3105C67.7851 13.3105 67.9313 13.3712 68.0485 13.4917C68.1656 13.6121 68.2246 13.7672 68.2246 13.957C68.2246 14.1468 68.1656 14.2917 68.0485 14.4121C67.9313 14.5334 67.778 14.5932 67.5893 14.5932C67.4005 14.5932 67.2386 14.5334 67.1245 14.4121C67.0105 14.2917 66.9531 14.1397 66.9531 13.957ZM68.0776 20.2035H67.1002V15.4255H68.0776V20.2035Z" fill="#FFFFFF"/>
<path d="M71.4506 20.3014C70.9615 20.3014 70.5377 20.1951 70.1791 19.9833C69.8206 19.7715 69.5438 19.4793 69.348 19.1069C69.1522 18.7352 69.0547 18.3037 69.0547 17.8148C69.0547 17.3258 69.1522 16.8943 69.348 16.5226C69.5438 16.151 69.8206 15.8588 70.1791 15.6462C70.5377 15.4344 70.9615 15.3281 71.4506 15.3281C71.913 15.3281 72.3337 15.4541 72.7119 15.7053C73.0901 15.9565 73.3638 16.2911 73.5336 16.7092L72.605 17.1006C72.5004 16.8266 72.3439 16.6195 72.1355 16.4785C71.9271 16.3384 71.6889 16.2683 71.4215 16.2683C71.0307 16.2683 70.7044 16.4037 70.4433 16.6746C70.1823 16.9455 70.0525 17.3258 70.0525 17.8155C70.0525 18.3053 70.1831 18.6856 70.4433 18.9565C70.7036 19.2274 71.0299 19.3628 71.4215 19.3628C71.6889 19.3628 71.9264 19.2927 72.1355 19.1526C72.3439 19.0124 72.5004 18.8045 72.605 18.5305L73.5336 18.9219C73.3575 19.34 73.0823 19.6746 72.7072 19.9258C72.3321 20.177 71.9138 20.303 71.4506 20.303V20.3014Z" fill="#FFFFFF"/>
<path d="M75.717 20.34C75.345 20.34 75.0258 20.2746 74.7584 20.1439C74.4911 20.0132 74.2874 19.8258 74.1475 19.5809C74.0075 19.336 73.9375 19.0439 73.9375 18.7045C73.9375 18.3911 74.0091 18.1124 74.153 17.8675C74.2961 17.6226 74.5013 17.4289 74.7686 17.2848C75.036 17.1415 75.3521 17.0691 75.717 17.0691C76.173 17.0691 76.5395 17.1722 76.817 17.3777C77.0938 17.5833 77.288 17.8659 77.3989 18.225H76.8516V17.0014C76.8516 16.799 76.7832 16.6132 76.6464 16.4431C76.5096 16.2738 76.2682 16.1888 75.923 16.1888C75.7406 16.1888 75.54 16.21 75.3214 16.2525C75.1028 16.2951 74.8764 16.3683 74.6421 16.473L74.3488 15.7195C74.6161 15.5888 74.8929 15.4911 75.1799 15.4258C75.4669 15.3604 75.7468 15.3281 76.0205 15.3281C76.431 15.3281 76.7699 15.4029 77.0372 15.5533C77.3046 15.7037 77.5035 15.9045 77.634 16.1557C77.7646 16.4069 77.8298 16.6896 77.8298 17.0029V20.2045H77.1261L76.8815 19.3329L77.3997 19.1864C77.2825 19.5715 77.0742 19.8604 76.7738 20.0534C76.4742 20.2455 76.1219 20.3423 75.7177 20.3423L75.717 20.34ZM75.8931 19.4683C76.1801 19.4683 76.4113 19.4014 76.5874 19.2675C76.7636 19.1337 76.8516 18.9463 76.8516 18.7045C76.8516 18.4628 76.7636 18.2675 76.5874 18.1368C76.4113 18.0061 76.1801 17.9407 75.8931 17.9407C75.6061 17.9407 75.3749 18.0061 75.1988 18.1368C75.0226 18.2675 74.9346 18.4565 74.9346 18.7045C74.9346 18.9526 75.0226 19.1337 75.1988 19.2675C75.3749 19.4014 75.6061 19.4683 75.8931 19.4683Z" fill="#FFFFFF"/>
<path d="M40.0364 26.9844H41.4149C41.845 26.9844 42.1902 26.867 42.4512 26.6316C42.7115 26.3969 42.842 26.0702 42.842 25.6528C42.842 25.2087 42.7131 24.8741 42.456 24.6489C42.198 24.4237 41.8544 24.3111 41.4243 24.3111H40.0356L40.2118 24.0859V30.0584H39.2344V23.3906H41.591C42.0471 23.3906 42.4449 23.4922 42.7839 23.6938C43.1228 23.8961 43.387 24.167 43.5757 24.5064C43.7644 24.8458 43.8596 25.2276 43.8596 25.6521C43.8596 26.0765 43.7652 26.4497 43.5757 26.793C43.387 27.1355 43.1212 27.4064 42.7791 27.6056C42.4371 27.8048 42.0376 27.904 41.5816 27.904H40.0364V26.9836V26.9844Z" fill="#FFFFFF"/>
<path d="M46.6384 30.1565C46.1556 30.1565 45.731 30.0533 45.3622 29.8478C44.9934 29.6423 44.7087 29.3533 44.5066 28.9809C44.3046 28.6092 44.2031 28.1746 44.2031 27.6785C44.2031 27.1824 44.3038 26.7383 44.5066 26.3667C44.7087 25.995 44.9942 25.7045 45.3622 25.495C45.7302 25.2864 46.1556 25.1816 46.6384 25.1816C47.1212 25.1816 47.5545 25.2864 47.9193 25.495C48.2842 25.7045 48.5696 25.9942 48.7748 26.3667C48.9801 26.7391 49.0831 27.1761 49.0831 27.6785C49.0831 28.1809 48.9801 28.6084 48.7748 28.9809C48.5696 29.3533 48.2842 29.6415 47.9193 29.8478C47.5545 30.0533 47.1275 30.1565 46.6384 30.1565ZM46.6384 29.2163C47.0748 29.2163 47.4255 29.0746 47.6897 28.7903C47.9539 28.5061 48.086 28.136 48.086 27.6793C48.086 27.2226 47.9539 26.8407 47.6897 26.5533C47.4255 26.2659 47.0756 26.1226 46.6384 26.1226C46.2012 26.1226 45.8607 26.2643 45.5973 26.5486C45.3331 26.8328 45.201 27.2061 45.201 27.6698C45.201 28.1336 45.3331 28.5069 45.5973 28.7911C45.8615 29.0754 46.2083 29.2171 46.6384 29.2171V29.2163Z" fill="#FFFFFF"/>
<path d="M50.0078 31.9187V25.2801H50.7509L50.9852 26.2399H50.8877V28.962H50.9852V31.9187H50.0078ZM52.4234 30.1565C51.9933 30.1565 51.6182 30.0533 51.299 29.8478C50.9797 29.6423 50.7304 29.3533 50.5512 28.9809C50.3719 28.6092 50.2822 28.1746 50.2822 27.6785C50.2822 27.1824 50.3719 26.7383 50.5512 26.3667C50.7304 25.995 50.9797 25.7045 51.299 25.495C51.6182 25.2864 51.9933 25.1816 52.4234 25.1816C52.8535 25.1816 53.253 25.2864 53.5825 25.495C53.9119 25.7045 54.1675 25.9942 54.3499 26.3667C54.5323 26.7391 54.6236 27.1761 54.6236 27.6785C54.6236 28.1809 54.5323 28.6084 54.3499 28.9809C54.1675 29.3533 53.9111 29.6415 53.5825 29.8478C53.253 30.0533 52.8669 30.1565 52.4234 30.1565ZM52.2764 29.314C52.6805 29.314 53.0061 29.1636 53.2538 28.8636C53.5015 28.5636 53.6257 28.1683 53.6257 27.6785C53.6257 27.1887 53.5015 26.7824 53.2538 26.4793C53.0061 26.1753 52.6798 26.0242 52.2764 26.0242C51.873 26.0242 51.5561 26.1746 51.3084 26.4746C51.0607 26.7746 50.9365 27.173 50.9365 27.6691C50.9365 28.1651 51.0599 28.5636 51.3084 28.8636C51.5561 29.1636 51.8785 29.314 52.2764 29.314Z" fill="#FFFFFF"/>
<path d="M56.9897 30.1565C56.6311 30.1565 56.3472 30.099 56.1388 29.9848C55.9305 29.8707 55.7771 29.7171 55.6796 29.525C55.5821 29.3329 55.5184 29.1155 55.4893 28.8738C55.4603 28.6321 55.4453 28.384 55.4453 28.1297V25.2801H56.4227V28.3352C56.4227 28.6746 56.499 28.9029 56.6523 29.0203C56.8057 29.1376 56.9865 29.1966 57.1949 29.1966C57.4033 29.1966 57.6234 29.1541 57.8357 29.0691C58.0473 28.984 58.2399 28.8683 58.4129 28.7211C58.5859 28.5746 58.7141 28.4163 58.799 28.2462V28.7943H58.6425V25.2793H59.6207V30.0573H58.8776L58.6724 29.2155L58.9169 29.1864C58.7471 29.3888 58.5584 29.5636 58.35 29.71C58.1408 29.8573 57.923 29.9683 57.695 30.0431C57.467 30.1179 57.2318 30.1557 56.9912 30.1557L56.9897 30.1565Z" fill="#FFFFFF"/>
<path d="M61.7455 30.108C61.5756 30.108 61.4262 30.0671 61.2957 29.9852C61.1652 29.9041 61.0629 29.7844 60.9874 29.6277C60.9127 29.471 60.875 29.2789 60.875 29.0497V23.3906H61.8335V28.7072C61.8335 28.9096 61.8839 29.0466 61.9853 29.1182C62.0867 29.1899 62.2023 29.2261 62.3329 29.2261V30.0096C62.2479 30.0426 62.1567 30.0671 62.0592 30.0828C61.9617 30.0993 61.8571 30.1072 61.7462 30.1072L61.7455 30.108Z" fill="#FFFFFF"/>
<path d="M64.6701 30.1954C64.2982 30.1954 63.9789 30.1301 63.7116 29.9994C63.4442 29.8687 63.2405 29.6813 63.1006 29.4364C62.9606 29.1915 62.8906 28.8994 62.8906 28.56C62.8906 28.2466 62.9622 27.9679 63.1061 27.723C63.2492 27.4781 63.4544 27.2844 63.7218 27.1403C63.9891 26.997 64.3052 26.9246 64.6701 26.9246C65.1262 26.9246 65.4926 27.0277 65.7702 27.2332C66.0469 27.4387 66.2412 27.7214 66.352 28.0805H65.8048V26.8568C65.8048 26.6545 65.7363 26.4686 65.5995 26.2986C65.4627 26.1293 65.2213 26.0442 64.8761 26.0442C64.6937 26.0442 64.4932 26.0655 64.2746 26.108C64.056 26.1505 63.8295 26.2238 63.5952 26.3285L63.3019 25.5749C63.5692 25.4442 63.846 25.3466 64.133 25.2812C64.42 25.2159 64.7 25.1836 64.9736 25.1836C65.3841 25.1836 65.723 25.2584 65.9903 25.4088C66.2577 25.5592 66.4566 25.76 66.5872 26.0112C66.7177 26.2623 66.7829 26.545 66.7829 26.8584V30.06H66.0792L65.8346 29.1883L66.3528 29.0419C66.2357 29.4269 66.0273 29.7159 65.7269 29.9088C65.4273 30.101 65.075 30.1978 64.6709 30.1978L64.6701 30.1954ZM64.8462 29.3246C65.1332 29.3246 65.3644 29.2576 65.5406 29.1238C65.7167 28.9899 65.8048 28.8025 65.8048 28.5608C65.8048 28.319 65.7167 28.1238 65.5406 27.9931C65.3644 27.8624 65.1332 27.797 64.8462 27.797C64.5592 27.797 64.328 27.8624 64.1519 27.9931C63.9758 28.1238 63.8877 28.3127 63.8877 28.5608C63.8877 28.8088 63.9758 28.9899 64.1519 29.1238C64.328 29.2576 64.5592 29.3246 64.8462 29.3246Z" fill="#FFFFFF"/>
<path d="M68.7431 25.2801L68.9774 26.5722V30.0581H68V25.2801H68.7431ZM68.8311 26.9738L68.5968 26.8659V26.1509L68.6849 26.0431C68.7502 25.9257 68.8524 25.7998 68.9931 25.6659C69.1331 25.532 69.2974 25.4179 69.4869 25.3234C69.6757 25.2289 69.8683 25.1816 70.0641 25.1816C70.1616 25.1816 70.2544 25.1879 70.3425 25.2013C70.4305 25.2147 70.4974 25.2368 70.543 25.2698V26.1509H70.2395C69.796 26.1509 69.4736 26.2179 69.2715 26.3517C69.0694 26.4856 68.9224 26.6927 68.8311 26.9738Z" fill="#FFFFFF"/>
<path d="M20.9353 29.3031C20.8162 29.0289 20.6962 28.7538 20.5762 28.477C20.465 28.228 20.3528 27.979 20.2407 27.73C20.185 27.6055 20.1294 27.4811 20.0738 27.3574C20.0164 27.239 19.9442 27.125 19.8677 27.011C19.7912 26.8952 19.7147 26.7803 19.6382 26.6654C19.5634 26.5478 19.5061 26.4199 19.447 26.3023C19.3279 26.0629 19.2096 25.8253 19.0931 25.5902C18.974 25.3569 18.8558 25.1262 18.7402 24.899C18.6819 24.7859 18.6246 24.6727 18.5672 24.5613C18.5055 24.4402 18.4872 24.2992 18.482 24.1652C18.475 23.8944 18.5046 23.6376 18.4168 23.4539C18.3229 23.2537 18.1768 23.0726 18.0447 22.8837C17.9108 22.6983 17.7987 22.4911 17.7526 22.2769C17.7022 22.0654 17.6813 21.8617 17.6318 21.6867C17.5422 21.3507 17.2962 21.0921 17.1319 20.8223C17.0841 20.9215 17.0371 21.019 17.005 21.1156C16.9128 21.3611 16.9841 21.6232 17.0484 21.9009C17.0806 22.0402 17.1119 22.1829 17.1154 22.33C17.1067 22.4719 17.098 22.6147 17.0893 22.7584C17.0788 23.0448 17.0371 23.3355 17.0597 23.6289C17.0806 23.9223 17.1014 24.2191 17.1232 24.5177C17.1336 24.8163 17.144 25.1167 17.1545 25.4187C17.1675 25.6912 17.1797 25.9646 17.1927 26.237C17.1988 26.3729 17.2049 26.5095 17.211 26.6453C17.2206 26.7768 17.2458 26.9091 17.2753 27.0432C17.304 27.179 17.3336 27.3148 17.3623 27.4497C17.3883 27.5864 17.3944 27.7265 17.4075 27.858C17.4309 28.1244 17.4535 28.389 17.4761 28.6502C17.5013 28.9114 17.5266 29.169 17.5509 29.4232C17.5631 29.5503 17.5761 29.6757 17.5883 29.8011C17.6013 29.936 17.5666 30.0744 17.5222 30.2006C17.4727 30.3373 17.4162 30.4661 17.3744 30.588C17.4501 30.5593 17.5257 30.5306 17.5987 30.5071C17.7935 30.4383 17.9786 30.4217 18.1838 30.4235L18.7828 30.4165C18.981 30.4174 19.1775 30.4191 19.3739 30.42C19.5626 30.4244 19.7521 30.4696 19.9451 30.5175C20.1381 30.5663 20.3328 30.6194 20.5336 30.6359C20.7362 30.6498 20.9222 30.6281 21.1152 30.6289C21.25 30.6289 21.3787 30.6281 21.5117 30.6272C21.4569 30.4522 21.3995 30.2781 21.3178 30.111C21.1909 29.8454 21.0631 29.5773 20.9335 29.3075L20.9353 29.3031Z" fill="#FFFFFF"/>
<path d="M10.1158 29.8946C10.1949 29.6108 10.274 29.3252 10.354 29.0362C10.4444 28.7515 10.5348 28.4651 10.6261 28.177C10.7052 27.9158 10.7852 27.6547 10.8643 27.3935C10.9043 27.2629 10.9442 27.1332 10.9834 27.0026C11.0181 26.8755 11.039 26.7423 11.0564 26.6065C11.0747 26.469 11.0929 26.3314 11.1112 26.1948C11.132 26.0572 11.1738 25.9232 11.2059 25.7952C11.2737 25.5358 11.3407 25.2798 11.4067 25.0256C11.4702 24.7714 11.5337 24.5198 11.5954 24.2726C11.6258 24.149 11.6571 24.0262 11.6867 23.9044C11.7197 23.7729 11.7988 23.6536 11.8823 23.5501C12.0544 23.342 12.2457 23.1679 12.3004 22.9711C12.3613 22.7587 12.37 22.5254 12.3952 22.2965C12.4161 22.0684 12.4682 21.8386 12.5743 21.647C12.6751 21.4547 12.7934 21.2875 12.8716 21.123C13.0281 20.8044 13.0081 20.4387 13.0655 20.1227C13.0942 20.0078 13.1194 19.9051 13.1454 19.8024C13.1254 19.8476 13.1063 19.8946 13.0863 19.9425C13.0463 20.0392 13.0029 20.1367 12.9368 20.2194C12.8646 20.2907 12.7907 20.363 12.7177 20.4361C12.576 20.585 12.4091 20.7156 12.2891 20.8905C12.1683 21.0638 12.0457 21.2388 11.9223 21.4155C11.791 21.5844 11.6589 21.755 11.5258 21.9265C11.4085 22.0832 11.2902 22.2399 11.1729 22.3966C11.1138 22.4749 11.0555 22.5524 10.9964 22.6308C10.9425 22.7082 10.8999 22.797 10.8599 22.8893C10.8182 22.9825 10.7773 23.0747 10.7365 23.167C10.693 23.2584 10.6322 23.3394 10.58 23.4186C10.4731 23.5788 10.367 23.7372 10.2627 23.8948C10.1601 24.0532 10.0584 24.2099 9.95927 24.364C9.90972 24.4415 9.86017 24.5181 9.81149 24.5938C9.75846 24.6757 9.66717 24.7288 9.57502 24.7679C9.38637 24.8463 9.18729 24.8907 9.10296 25.0108C9.01081 25.1397 8.95952 25.3068 8.89606 25.4635C8.83521 25.6211 8.74827 25.7665 8.61961 25.8613C8.49616 25.958 8.36228 26.0302 8.26317 26.1164C8.06757 26.2818 8.01802 26.5578 7.90848 26.7641C7.6668 27.1393 7.49032 27.4135 7.40165 27.5511C7.29819 27.6703 7.23386 27.8218 7.15214 27.9602C7.07651 28.103 6.94871 28.2092 6.83309 28.2884C6.7166 28.372 6.60011 28.4451 6.48448 28.5061C6.4245 28.5348 6.36712 28.5626 6.31235 28.5896C6.28105 28.6018 6.25063 28.614 6.2202 28.6253C6.18543 28.634 6.15065 28.6419 6.1124 28.6445C5.80552 28.6654 5.48734 28.5853 5.27174 28.5383C5.18307 28.5165 5.1083 28.4939 5.03962 28.4686C4.93443 28.4303 4.84576 28.3859 4.76926 28.3215C4.64755 28.2188 4.56583 28.0656 4.58843 27.9306C4.60147 27.7887 4.75013 27.6921 4.86315 27.5432C4.87445 27.5232 4.88662 27.5023 4.89879 27.4814C4.90748 27.4562 4.91704 27.4309 4.92661 27.4048C4.94834 27.35 4.97181 27.2925 4.99529 27.2333C5.04658 27.1167 5.10743 26.9965 5.17872 26.8738C5.25435 26.7484 5.32738 26.637 5.3778 26.4794C5.43344 26.328 5.48734 26.153 5.60557 26.0154C5.70294 25.8892 5.89506 25.6394 6.15761 25.2981C6.27845 25.1275 6.34973 24.8585 6.59663 24.6852C6.71747 24.6008 6.867 24.5416 6.99566 24.4659C7.1278 24.3936 7.21734 24.29 7.29645 24.1516C7.37644 24.0175 7.44338 23.8582 7.56161 23.7276C7.68158 23.584 7.92413 23.5527 8.11625 23.4996C8.21275 23.4726 8.29882 23.4404 8.35619 23.3881C8.41531 23.3228 8.47529 23.2558 8.53528 23.1896C8.65612 23.0547 8.7787 22.918 8.90301 22.7788C9.02994 22.6421 9.1586 22.5045 9.28901 22.3644C9.3516 22.2947 9.41506 22.2251 9.47852 22.1546C9.53155 22.0754 9.58545 21.9953 9.63848 21.9152C9.69065 21.8325 9.74628 21.7498 9.81322 21.6749C9.88451 21.607 9.9558 21.5391 10.0271 21.4712C10.1705 21.3371 10.3148 21.2031 10.4583 21.069C10.6113 20.9158 10.7643 20.7626 10.9156 20.6102C11.0538 20.4466 11.1755 20.2698 11.2989 20.0983C11.4102 19.9164 11.5719 19.7789 11.7006 19.6178C11.7362 19.5769 11.771 19.536 11.8058 19.4951C11.6858 19.5682 11.5632 19.6535 11.4163 19.7023C11.2407 19.7684 11.0147 19.6761 10.8217 19.6274C10.7243 19.603 10.6339 19.5891 10.5574 19.6065C10.4739 19.6343 10.3896 19.6631 10.3044 19.6918C10.1331 19.7501 9.95928 19.8085 9.7828 19.8685C9.60545 19.9251 9.42549 19.9817 9.2438 20.0392C9.15513 20.0687 9.06558 20.0983 8.97604 20.1279C8.89084 20.1706 8.80478 20.2141 8.71871 20.2577C8.63265 20.3038 8.5431 20.3491 8.44834 20.3813C8.35272 20.4056 8.25796 20.4292 8.16233 20.4535C7.97107 20.4997 7.77981 20.5449 7.58856 20.5911C7.37991 20.6494 7.17214 20.7077 6.96523 20.7652C6.76441 20.8401 6.57142 20.9332 6.37929 21.022C6.19238 21.1256 5.98461 21.1656 5.79335 21.2422C5.69685 21.2771 5.60035 21.3128 5.50472 21.3467C5.41779 21.3876 5.33868 21.4547 5.26131 21.5304C5.10569 21.6784 4.95964 21.8638 4.74231 21.883C4.53192 21.9012 4.30763 21.8238 4.14767 21.8699C3.98945 21.9187 3.85644 22.0649 3.71908 22.1885C3.6504 22.2512 3.57911 22.3095 3.50348 22.3539C3.42872 22.3922 3.35569 22.4305 3.28354 22.4671C2.99926 22.6107 2.73845 22.7404 2.48982 22.804C2.24205 22.871 2.02993 22.9328 1.81868 22.9146C1.61091 22.8902 1.43704 22.8162 1.30142 22.7213C1.1658 22.6238 1.06409 22.4915 0.992798 22.2912C0.99106 22.2878 0.991929 22.2843 0.99019 22.2808C0.922381 22.0875 0.913687 21.9134 0.967587 21.775C1.02149 21.6322 1.14146 21.5382 1.30055 21.452C1.45355 21.3615 1.64655 21.2431 1.88388 21.1561C2.12121 21.0673 2.38897 20.9663 2.68195 20.8557C2.75497 20.8296 2.8306 20.8035 2.90624 20.7765C2.97926 20.7504 3.04968 20.7086 3.12184 20.6616C3.26615 20.5684 3.40959 20.4457 3.60172 20.4083C3.79906 20.3804 4.03552 20.4901 4.2346 20.5075C4.43108 20.5345 4.58321 20.403 4.74839 20.2751C4.83098 20.2106 4.91704 20.1471 5.01441 20.1079C5.11265 20.0809 5.21175 20.0548 5.31173 20.0278C5.5082 19.9678 5.71772 19.9364 5.9081 19.8433C6.09849 19.7519 6.29149 19.6596 6.48535 19.5673C6.68269 19.4846 6.88177 19.401 7.08173 19.3183C7.26081 19.24 7.44077 19.1616 7.61985 19.0833C7.7094 19.0441 7.79894 19.0049 7.88848 18.9666C7.97368 18.9257 8.05453 18.8691 8.13451 18.8091C8.21623 18.749 8.29708 18.6881 8.3788 18.6289C8.46225 18.5705 8.55441 18.5305 8.63873 18.487C8.81086 18.3999 8.98039 18.3137 9.14904 18.2293C9.31596 18.1414 9.48113 18.0552 9.6437 17.9699C9.72455 17.9272 9.8054 17.8846 9.88538 17.8428C9.97145 17.7975 10.0766 17.7966 10.1766 17.8071C10.3792 17.8323 10.5748 17.8907 10.7069 17.828C10.8504 17.7609 10.9773 17.6408 11.1094 17.5355C11.1694 17.4858 11.2337 17.4432 11.3007 17.4075C11.1694 17.3814 11.0425 17.3622 10.9225 17.3683C10.593 17.3823 10.2601 17.4528 9.9245 17.5067C9.59241 17.5633 9.24293 17.5921 8.91953 17.5564C8.59787 17.5259 8.30316 17.471 8.03193 17.4528C7.5051 17.4127 6.99914 17.5546 6.52534 17.606C5.60296 17.6678 4.93008 17.7122 4.59191 17.7348C4.26329 17.7348 3.93555 17.7844 3.60519 17.8123C3.27658 17.848 2.93493 17.8201 2.65239 17.7836C2.36116 17.7496 2.08731 17.7087 1.83346 17.6608C1.70653 17.6347 1.58483 17.6086 1.46833 17.5842C1.40661 17.5686 1.34575 17.5529 1.28664 17.5381C1.22578 17.5172 1.1658 17.4963 1.11016 17.4693C1.09538 17.4623 1.08321 17.4536 1.0693 17.4458C1.05539 17.5363 1.04061 17.6269 1.02409 17.7183C0.945853 18.1126 0.866742 18.5079 0.7885 18.9031C0.707651 19.3027 0.650274 19.7066 0.58942 20.0705C0.46858 20.8122 0.395555 21.5574 0.344263 22.2277C0.317313 22.5672 0.28167 22.8806 0.221685 23.1896C0.166915 23.5257 0.132142 23.8504 0.1078 24.1603C0.0234729 25.3817 0.0191257 26.4376 0 27.3064C0.0139096 28.1961 0.0869353 28.8734 0.181695 29.3426C0.278192 29.8032 0.410333 30.0635 0.6155 30.0991C0.643319 30.1714 0.678962 30.2515 0.732862 30.3455C0.825013 30.5013 0.962371 30.6807 1.16841 30.7886C1.2197 30.8139 1.27534 30.833 1.33358 30.8443C1.37357 30.8539 1.43182 30.8522 1.46833 30.8591C1.50224 31.0959 1.46486 30.8339 1.4805 30.941L1.48398 30.9436L1.49007 30.9479L1.50224 30.9566L1.60395 31.0263C1.75 31.1203 1.90996 31.1751 2.15512 31.2526C2.27683 31.2874 2.41853 31.3214 2.58719 31.3423C2.67064 31.3527 2.76193 31.3597 2.85929 31.3614C2.92362 31.3675 2.93319 31.3788 2.97839 31.3884C3.0575 31.4076 3.13749 31.4337 3.22877 31.4868C3.32092 31.5382 3.42524 31.6087 3.54695 31.6844C3.66953 31.7601 3.81036 31.842 3.98945 31.9064C4.08421 31.9377 4.17114 31.9647 4.30415 31.9813C4.43456 31.9978 4.558 32.003 4.67536 31.9995C4.90053 31.9978 5.21088 31.9473 5.50038 31.8803C5.64556 31.8481 5.78552 31.8167 5.91506 31.8054C5.98548 31.8002 6.05415 31.7889 6.11327 31.7767L6.2002 31.7567C6.20716 31.7488 6.32191 31.7427 6.3819 31.7332C6.67139 31.6983 6.94263 31.6287 7.19996 31.5756C7.45555 31.5268 7.73722 31.479 7.99281 31.4206C8.23275 31.3684 8.48312 31.3136 8.74305 31.257C8.98299 31.1943 9.17773 31.1551 9.4507 31.1168C9.50634 31.1098 9.56981 31.1046 9.62718 31.0977C9.68282 30.9679 9.73846 30.8365 9.7941 30.7042C9.90016 30.4378 10.0366 30.1784 10.1131 29.8946H10.1158ZM1.44051 30.6546V30.6519C1.44051 30.6537 1.44051 30.6546 1.44051 30.6554V30.6546Z" fill="#FFFFFF"/>
<path d="M1.31568 15.7878C1.36784 15.7782 1.42087 15.7686 1.47477 15.7591C1.59126 15.7399 1.71297 15.7199 1.8399 15.699C2.09375 15.6616 2.36672 15.6294 2.65796 15.6032C2.95875 15.5789 3.23434 15.5614 3.55252 15.4979C3.86896 15.4413 4.21931 15.3682 4.59661 15.3682C4.9287 15.3595 5.58419 15.3421 6.48136 15.3186C6.91603 15.2994 7.43851 15.1784 8.04793 15.2524C8.34524 15.289 8.64169 15.3638 8.9364 15.4117C9.23024 15.4648 9.51626 15.4657 9.8414 15.4352C10.1622 15.4082 10.5056 15.356 10.8724 15.3604C11.2637 15.3577 11.641 15.5214 11.9861 15.632C12.16 15.6877 12.3277 15.7321 12.4886 15.7417C12.6729 15.7434 12.8589 15.746 13.0458 15.7477C13.4231 15.7512 13.8065 15.7547 14.1951 15.7591C14.5837 15.7669 14.9775 15.7739 15.3748 15.7817C15.5704 15.7843 15.7669 15.7869 15.9642 15.7887C16.1624 15.7773 16.3615 15.7652 16.5606 15.7538C16.7632 15.7399 16.9692 15.7277 17.1787 15.7295C17.383 15.739 17.5873 15.7486 17.7916 15.7591C18.1985 15.7808 18.6071 15.8026 19.0148 15.8244C19.4651 15.84 19.9154 15.8566 20.3623 15.8722C20.8091 15.8705 21.2542 15.8479 21.6941 15.8296C22.134 15.7956 22.5704 15.8287 23.0007 15.8217C23.2155 15.8217 23.4293 15.8217 23.6406 15.8217C23.8405 15.813 24.0431 15.7765 24.2483 15.7312C24.6586 15.645 25.0785 15.5205 25.5175 15.5754C25.9435 15.6294 26.3277 15.7782 26.6746 15.7887C27.0189 15.7965 27.384 15.7042 27.7422 15.6346C27.9221 15.5989 28.103 15.5684 28.2838 15.5519C28.4577 15.5414 28.628 15.5301 28.7958 15.5197C29.4557 15.4814 30.0599 15.4474 30.5936 15.4718C31.1283 15.4935 31.5882 15.5066 31.9881 15.5954C32.1081 15.6241 32.2159 15.6572 32.3167 15.692C32.3167 15.6868 32.3167 15.6816 32.3167 15.6764C32.3245 15.1436 32.3254 14.5908 32.3532 14.0276C32.3845 13.4721 32.4436 12.8192 32.4906 12.1724L32.5253 11.7136C32.5288 11.6884 32.5297 11.6066 32.5314 11.5387L32.5358 11.3306C32.5288 11.1922 32.5679 11.0512 32.5888 10.911C32.6253 10.5689 32.5784 10.232 32.481 9.98562C32.361 9.6905 32.1376 9.45981 31.8898 9.29441C31.6534 9.13336 31.3369 9.02019 31.017 8.91833C30.8223 8.84347 30.8232 8.8365 30.744 8.80255L30.5528 8.70679C30.2833 8.56141 30.079 8.42822 29.8347 8.2219C29.3479 7.82232 28.808 7.17986 27.9665 6.60095C27.271 6.17438 26.5573 5.73737 25.8296 5.29078C25.6531 5.18805 25.4758 5.08446 25.2976 4.97999C25.1689 4.90513 25.0089 4.78673 24.8046 4.64396C24.7021 4.57345 24.5882 4.49684 24.4604 4.42285C24.3969 4.38541 24.3291 4.34885 24.2578 4.31403L24.1213 4.25048C23.9579 4.17387 23.7945 4.08421 23.6267 3.98322C22.8929 3.514 22.1479 3.03694 21.3942 2.55379C21.0117 2.30917 20.6266 2.06193 20.2388 1.8147C19.8485 1.56746 19.526 1.34809 19.1356 1.0669C18.9391 0.926745 18.7357 0.788329 18.5192 0.655136C18.4114 0.588104 18.2993 0.524554 18.1854 0.461005L18.0037 0.366115L17.7681 0.259909C17.4465 0.124975 17.0831 0.0135453 16.7388 0.00309882C16.3806 -0.0291113 16.0703 0.195489 15.839 0.411384C15.7156 0.526296 15.6017 0.660359 15.4843 0.790941C15.4748 0.807481 15.4278 0.845784 15.3826 0.884959L15.2522 0.99813L14.7315 1.45168L14.4707 1.67889C14.3881 1.74331 14.3107 1.81122 14.2247 1.87303C14.0569 2.00013 13.8787 2.12113 13.6944 2.23865C12.9232 2.71136 12.1182 3.29898 11.3688 3.84132C10.9437 4.15559 10.5699 4.42633 10.1083 4.66486C9.66231 4.90774 9.20416 5.13234 8.74254 5.35433C8.28265 5.56587 7.80712 5.81398 7.37331 6.07688C6.94994 6.32586 6.51092 6.56003 6.0632 6.78028C5.61549 7.00749 5.16429 7.18856 4.69658 7.44886C4.23235 7.70741 3.82897 7.97031 3.3969 8.22625L2.19112 8.95228C1.85294 9.1499 1.23135 9.36405 0.756688 9.593L0.752341 9.66526C0.724522 10.2059 0.697573 10.7352 0.670623 11.2531C0.652367 11.7215 0.63411 12.1785 0.616723 12.6251C0.568039 13.5827 0.76799 14.5107 1.01749 15.3107C1.06009 15.4761 1.08965 15.6407 1.11138 15.8043C1.13138 15.8043 1.14963 15.8043 1.16963 15.8043C1.21744 15.8 1.26613 15.7956 1.31568 15.7904V15.7878Z" fill="#FFFFFF"/>
<path d="M15.71 29.8402C15.7117 29.7174 15.7144 29.5929 15.7161 29.4676C15.7196 29.2151 15.7239 28.9583 15.7274 28.6989C15.7352 28.4386 15.743 28.1757 15.7509 27.9102C15.7535 27.7796 15.7561 27.6481 15.7587 27.5158C15.7474 27.3835 15.7361 27.2503 15.7248 27.1171C15.7109 26.9813 15.6987 26.8438 15.7013 26.7036C15.7109 26.5669 15.7213 26.4302 15.7309 26.2936C15.7526 26.0211 15.7743 25.7486 15.7969 25.4753C15.8135 25.1741 15.8291 24.8728 15.8456 24.5742C15.8439 24.2757 15.8222 23.9779 15.8039 23.6837C15.77 23.3894 15.8039 23.0978 15.7969 22.8097C15.7969 22.666 15.7969 22.5232 15.7969 22.3814C15.7883 22.2473 15.7517 22.1124 15.7074 21.9748C15.6213 21.7006 15.497 21.4194 15.5527 21.126C15.6074 20.8414 15.7561 20.5845 15.7665 20.3521C15.7743 20.1214 15.6822 19.8777 15.6126 19.6383C15.6118 19.6348 15.6109 19.6304 15.61 19.627C15.6074 19.6348 15.6057 19.6435 15.6031 19.6513C15.5361 19.8637 15.4057 20.2816 15.2258 20.8553C15.1467 21.1356 15.1432 21.5056 14.9363 21.8642C14.8346 22.0392 14.6981 22.2011 14.5868 22.37C14.4703 22.5372 14.406 22.7174 14.3616 22.9324C14.3147 23.1439 14.2869 23.3773 14.2008 23.6071C14.1156 23.8543 13.8766 24.0371 13.6949 24.2173C13.6027 24.3079 13.5236 24.3993 13.4793 24.4976C13.4358 24.6126 13.3923 24.7292 13.348 24.8467C13.2602 25.0835 13.1698 25.3238 13.0794 25.5667C12.9855 25.8087 12.8898 26.0542 12.7933 26.3023C12.7473 26.425 12.7003 26.5478 12.6542 26.6705C12.6203 26.7994 12.5864 26.9282 12.5525 27.0579C12.5204 27.1902 12.4856 27.3243 12.436 27.4557C12.3813 27.5811 12.3256 27.7065 12.2709 27.8318C12.1587 28.0808 12.0466 28.3306 11.9344 28.5805C11.8179 28.8591 11.7023 29.1368 11.5867 29.4136C11.4884 29.6957 11.4093 29.9829 11.3276 30.2667C11.2711 30.5131 11.1711 30.742 11.0859 30.9736C11.1207 30.9719 11.152 30.9684 11.1877 30.9666C11.824 30.9101 12.5125 30.8665 13.2324 30.8369C13.4132 30.8256 13.5949 30.8143 13.7774 30.803C13.9609 30.7838 14.1234 30.796 14.3095 30.8204C14.4938 30.8509 14.6894 30.8709 14.8746 30.8953C15.0241 30.9144 15.1841 30.9005 15.3345 30.89C15.3458 30.6402 15.4962 30.3991 15.6022 30.1779C15.6587 30.0622 15.7022 29.949 15.7117 29.8419L15.71 29.8402Z" fill="#FFFFFF"/>
<path d="M30.6116 17.2269C30.0831 17.2304 29.4858 17.2339 28.8321 17.2382C28.6695 17.2382 28.5043 17.2365 28.3348 17.2365C28.1722 17.2365 28.0036 17.2521 27.8297 17.2713C27.4794 17.3096 27.1116 17.3766 26.7082 17.3462C26.3014 17.3052 25.9145 17.1224 25.5381 17.038C25.1712 16.9457 24.78 17.018 24.3645 17.0824C24.1567 17.1146 23.9428 17.1459 23.7229 17.1494C23.5108 17.1407 23.2969 17.1329 23.0822 17.1242C22.6545 17.1137 22.2198 17.0719 21.7816 17.0954C21.4609 17.1111 21.1366 17.1268 20.8114 17.1424C20.9097 17.2173 21.0192 17.2661 21.1514 17.2913C21.3044 17.3235 21.4756 17.3374 21.6373 17.4071C21.8121 17.475 21.919 17.6952 22.0311 17.8598C22.0877 17.9433 22.1459 18.0139 22.2137 18.0522C22.2946 18.087 22.3763 18.1227 22.4589 18.1584C22.6249 18.2298 22.7936 18.302 22.9648 18.3751C23.1344 18.4517 23.3065 18.5301 23.4804 18.6084C23.5664 18.6459 23.6525 18.6833 23.7394 18.7216C23.8316 18.7469 23.9246 18.7712 24.0167 18.7965C24.1124 18.82 24.208 18.8452 24.3001 18.8853C24.3871 18.9314 24.474 18.9767 24.5618 19.0228C24.7348 19.116 24.9078 19.21 25.0808 19.3031C25.2747 19.3989 25.4686 19.4947 25.6616 19.5904C25.8606 19.6688 26.0667 19.728 26.2684 19.7906C26.4761 19.8376 26.6578 19.9473 26.8517 20.0187C26.9473 20.057 27.0421 20.0953 27.136 20.1336C27.2281 20.1615 27.3316 20.1641 27.4394 20.1597C27.6541 20.1537 27.8862 20.1136 28.061 20.2442C28.2296 20.3713 28.3452 20.5785 28.4956 20.6507C28.646 20.7204 28.8425 20.6995 29.0268 20.6995C29.1198 20.6986 29.212 20.703 29.298 20.7204C29.3798 20.7413 29.4589 20.7622 29.5371 20.7831C29.8449 20.8666 30.1248 20.9432 30.3534 21.0625C30.5829 21.1783 30.782 21.274 30.9263 21.4281C31.0646 21.5848 31.1454 21.7563 31.1828 21.9182C31.2184 22.0819 31.2063 22.2482 31.1263 22.4449C31.1245 22.4484 31.1228 22.451 31.1219 22.4545C31.0428 22.6443 30.9333 22.7792 30.8011 22.8462C30.6664 22.9168 30.5134 22.9063 30.3378 22.8645C30.1639 22.8297 29.9414 22.7897 29.7058 22.6948C29.4702 22.6025 29.2033 22.4989 28.9112 22.3849C28.839 22.3553 28.766 22.3248 28.6912 22.2934C28.6191 22.2638 28.5382 22.2482 28.4539 22.2351C28.2844 22.2073 28.0957 22.2038 27.9279 22.1028C27.7628 21.9914 27.6584 21.752 27.5228 21.6066C27.3942 21.4551 27.1933 21.4508 26.9856 21.436C26.8812 21.429 26.7752 21.4186 26.6761 21.3829C26.5848 21.3367 26.4935 21.2906 26.4014 21.2436C26.2153 21.1565 26.038 21.0399 25.8346 20.9824C25.632 20.9232 25.4268 20.8631 25.2208 20.8022C25.0182 20.7317 24.8148 20.6612 24.6105 20.5898C24.4245 20.528 24.2384 20.467 24.0533 20.4052C23.9602 20.3748 23.8681 20.3434 23.7751 20.313C23.6838 20.2868 23.5864 20.2747 23.4864 20.266C23.3856 20.2564 23.2847 20.2468 23.1848 20.2372C23.0839 20.225 22.9883 20.1928 22.897 20.1693C22.711 20.1188 22.5267 20.0692 22.345 20.0205C22.1624 19.9735 21.9816 19.9282 21.8034 19.8829C21.7147 19.8603 21.626 19.8385 21.5391 19.8159C21.4443 19.7924 21.3652 19.7219 21.2983 19.6479C21.1644 19.4938 21.0575 19.3197 20.9175 19.2779C20.8879 19.2692 20.8558 19.2683 20.8245 19.2631C20.8697 19.3214 20.9149 19.3806 20.961 19.4398C21.0914 19.5982 21.2009 19.7802 21.36 19.9203C21.5174 20.0614 21.6764 20.2041 21.8364 20.3478C21.9885 20.4984 22.1416 20.6507 22.2954 20.8031C22.4363 20.9389 22.578 21.0747 22.7188 21.2105C22.7892 21.2784 22.8596 21.3463 22.9301 21.4142C23.0005 21.4769 23.0831 21.53 23.17 21.5813C23.2569 21.6336 23.3439 21.6858 23.4299 21.7372C23.5151 21.792 23.5882 21.8617 23.6603 21.9226C23.8064 22.048 23.9507 22.1724 24.0941 22.2952C24.2393 22.4162 24.3819 22.5355 24.5227 22.653C24.5931 22.7113 24.6635 22.7696 24.7322 22.828C24.807 22.8906 24.8487 22.9873 24.8765 23.0839C24.9313 23.2806 24.9522 23.4844 25.0608 23.5819C25.1773 23.6889 25.3364 23.7594 25.4851 23.8421C25.6337 23.9214 25.7685 24.0258 25.8459 24.1642C25.9276 24.2983 25.9823 24.4402 26.0562 24.549C26.1971 24.7632 26.4648 24.8459 26.6561 24.9791C26.9995 25.2646 27.249 25.4727 27.375 25.5771C27.4802 25.6938 27.6237 25.7756 27.7506 25.874C27.8827 25.9663 27.9732 26.1064 28.0375 26.2309C28.107 26.3571 28.1644 26.4816 28.2114 26.6044C28.2331 26.6671 28.2531 26.728 28.2731 26.7855C28.2818 26.8185 28.2896 26.8499 28.2974 26.8812C28.3018 26.9169 28.3052 26.9526 28.3035 26.99C28.287 27.2982 28.1696 27.6046 28.0975 27.8127C28.0653 27.898 28.034 27.9694 28.001 28.0356C27.9506 28.1357 27.8958 28.2184 27.8219 28.2863C27.7054 28.3942 27.5437 28.4578 27.4124 28.4186C27.2733 28.3881 27.1951 28.2288 27.0612 28.0991C27.0429 28.0852 27.0238 28.0712 27.0038 28.0564C26.9804 28.0443 26.956 28.0321 26.9317 28.0199C26.8795 27.9912 26.8256 27.9616 26.77 27.9311C26.6604 27.8667 26.5492 27.7909 26.4353 27.7056C26.3205 27.616 26.2188 27.5298 26.0684 27.4601C25.925 27.3861 25.758 27.3121 25.6363 27.1781C25.5225 27.0666 25.2982 26.8455 24.9913 26.5434C24.8365 26.4024 24.5783 26.2997 24.4366 26.0333C24.368 25.9027 24.3262 25.7478 24.2671 25.6102C24.2115 25.4701 24.1193 25.3682 23.9924 25.2742C23.869 25.1793 23.7194 25.0931 23.6047 24.9599C23.4769 24.8232 23.4751 24.5786 23.4447 24.381C23.4299 24.2818 23.4082 24.1921 23.363 24.1286C23.3047 24.0624 23.2465 23.9945 23.1874 23.9266C23.0683 23.7908 22.9474 23.6524 22.824 23.5122C22.704 23.3694 22.5823 23.2249 22.4597 23.0795C22.398 23.009 22.3363 22.9377 22.2746 22.8663C22.2024 22.8036 22.1294 22.7409 22.0564 22.6782C21.9807 22.6164 21.9051 22.5511 21.839 22.4754C21.7799 22.3962 21.7217 22.3178 21.6625 22.2386C21.5469 22.0802 21.4313 21.9209 21.3157 21.7615C21.1818 21.5909 21.0479 21.4212 20.9158 21.2514C20.7697 21.0947 20.6098 20.9519 20.4541 20.8083C20.2864 20.676 20.1707 20.4984 20.0264 20.3513C19.9569 20.2755 19.8873 20.1998 19.8195 20.1249C19.7482 20.0596 19.6561 20.0135 19.557 19.9708C19.4318 19.9151 19.297 19.8655 19.1875 19.7889C19.2084 19.8376 19.2275 19.8803 19.2501 19.9308C19.3744 20.1946 19.6144 20.4749 19.6943 20.8814C19.7326 21.0799 19.7361 21.2923 19.763 21.4934C19.7847 21.6963 19.8543 21.8738 19.963 22.0654C20.0664 22.2551 20.1994 22.4493 20.2846 22.68C20.3829 22.9229 20.3229 23.218 20.3046 23.473C20.2951 23.6019 20.2951 23.7229 20.3263 23.8265C20.3698 23.9423 20.4133 24.058 20.4568 24.1756C20.5454 24.4115 20.6358 24.6518 20.7271 24.8946C20.8149 25.1393 20.9045 25.3865 20.9949 25.6372C21.0401 25.76 21.0862 25.8827 21.1322 26.0063C21.1914 26.1256 21.2505 26.2448 21.3105 26.365C21.373 26.486 21.4348 26.6096 21.4843 26.7411C21.5252 26.8716 21.566 27.0022 21.6069 27.1337C21.686 27.3948 21.766 27.6569 21.8451 27.9189C21.9407 28.2053 22.0355 28.4908 22.1303 28.7755C22.2415 29.0532 22.3711 29.3213 22.4954 29.5886C22.6345 29.8498 22.711 30.1336 22.8223 30.3991C22.8475 30.4644 22.8735 30.5279 22.8988 30.5923C23.0552 30.5854 23.2082 30.5819 23.3569 30.5941C23.7229 30.6272 24.0811 30.561 24.4114 30.5488C24.7444 30.5244 25.0391 30.601 25.3477 30.7107C25.5007 30.763 25.6537 30.8161 25.8093 30.8552C25.9658 30.8953 26.124 30.9083 26.2649 30.9318C26.5544 30.9719 26.8317 31.0111 27.0951 31.0476C27.2281 31.0624 27.3568 31.0772 27.4828 31.0912C27.6132 31.099 27.7393 31.0955 27.8593 31.0885C28.3348 31.0502 28.7477 31.018 29.0885 30.9902C29.2537 30.9623 29.3998 30.9231 29.5293 30.8779C29.5736 30.9136 29.6188 30.9423 29.6701 30.9466C29.7501 30.9554 29.844 30.9144 29.9275 30.8013C29.9631 30.7569 29.9909 30.6907 30.0179 30.6141C30.1335 30.5105 30.2022 30.3869 30.2187 30.2258C30.2239 30.1736 30.223 30.1231 30.2152 30.0744C30.3134 29.8576 30.4239 29.5729 30.5004 29.2613C30.5482 29.0785 30.6003 28.8808 30.656 28.6702C30.6838 28.5709 30.7142 28.4734 30.749 28.3785C30.7829 28.2854 30.8229 28.1513 30.8585 28.0321C31.0072 27.5211 31.0959 26.9953 31.1863 26.3798C31.2689 25.773 31.3193 25.0809 31.2897 24.3514C31.288 24.1033 31.3175 23.8561 31.3862 23.5766C31.4523 23.2946 31.5523 22.9812 31.6601 22.6199C31.714 22.4397 31.7696 22.2456 31.82 22.0305C31.8722 21.8016 31.913 21.6031 31.9513 21.3985C31.9896 21.1913 32.0235 20.9781 32.0487 20.7569C32.073 20.5437 32.0921 20.3356 32.1078 20.1241C32.1399 19.7245 32.1626 19.1299 32.1904 18.3978C32.2051 18.0304 32.2234 17.6326 32.2582 17.2025C32.2608 17.1747 32.2608 17.1451 32.2634 17.1163C32.1704 17.1285 32.0721 17.1381 31.9678 17.1459C31.6036 17.179 31.1411 17.2251 30.6125 17.226L30.6116 17.2269Z" fill="#FFFFFF"/>
</svg>
